<svg xmlns="http://www.w3.org/2000/svg" xmlns:xlink="http://www.w3.org/1999/xlink" width="775" height="365" viewBox="0 0 775 365">
  <defs>
    <filter id="Rectangle_1505" x="0" y="0" width="775" height="365" filterUnits="userSpaceOnUse">
      <feOffset input="SourceAlpha"/>
      <feGaussianBlur stdDeviation="10" result="blur"/>
      <feFlood flood-color="#525252" flood-opacity="0.161"/>
      <feComposite operator="in" in2="blur"/>
      <feComposite in="SourceGraphic"/>
    </filter>
  </defs>
  <g id="Group_1343" data-name="Group 1343" transform="translate(-296 -465)">
    <g id="Group_1148" data-name="Group 1148" transform="translate(0 4)">
      <g id="Group_1147" data-name="Group 1147">
        <g id="Group_962" data-name="Group 962" transform="translate(107.743 -256)">
          <g transform="matrix(1, 0, 0, 1, 188.26, 717)" filter="url(#Rectangle_1505)">
            <rect id="Rectangle_1505-2" data-name="Rectangle 1505" width="715" height="305" rx="2" transform="translate(30 30)" fill="#fff"/>
          </g>
          <g id="Group_1081" data-name="Group 1081" transform="translate(233 789)">
            <line id="Line_34" data-name="Line 34" x2="484.65" transform="translate(36.5 210.5)" fill="none" stroke="#707070" stroke-width="1"/>
            <text id="_4a" data-name="4a" transform="translate(51.257 231)" fill="gray" font-size="13" font-family="Avenir-Book, Avenir"><tspan x="-13.975" y="0">4a</tspan></text>
            <text id="_6a" data-name="6a" transform="translate(92.256 231)" fill="gray" font-size="13" font-family="Avenir-Book, Avenir"><tspan x="-13.975" y="0">6a</tspan></text>
            <text id="_10a" data-name="10a" transform="translate(176.256 231)" fill="gray" font-size="13" font-family="Avenir-Book, Avenir"><tspan x="-21.203" y="0">10a</tspan></text>
            <text id="_8a" data-name="8a" transform="translate(132.256 231)" fill="gray" font-size="13" font-family="Avenir-Book, Avenir"><tspan x="-13.975" y="0">8a</tspan></text>
            <text id="_12p" data-name="12p" transform="translate(218.257 231)" fill="gray" font-size="13" font-family="Avenir-Book, Avenir"><tspan x="-22.399" y="0">12p</tspan></text>
            <text id="_2p" data-name="2p" transform="translate(254.257 231)" fill="gray" font-size="13" font-family="Avenir-Book, Avenir"><tspan x="-15.171" y="0">2p</tspan></text>
            <text id="_2a" data-name="2a" transform="translate(498.257 231)" fill="gray" font-size="13" font-family="Avenir-Book, Avenir"><tspan x="-13.975" y="0">2a</tspan></text>
            <text id="_4p" data-name="4p" transform="translate(295.256 231)" fill="gray" font-size="13" font-family="Avenir-Book, Avenir"><tspan x="-15.171" y="0">4p</tspan></text>
            <text id="_6p" data-name="6p" transform="translate(336.257 231)" fill="gray" font-size="13" font-family="Avenir-Book, Avenir"><tspan x="-15.171" y="0">6p</tspan></text>
            <text id="_8p" data-name="8p" transform="translate(376.257 231)" fill="gray" font-size="13" font-family="Avenir-Book, Avenir"><tspan x="-15.171" y="0">8p</tspan></text>
            <text id="_12a" data-name="12a" transform="translate(462.257 231)" fill="gray" font-size="13" font-family="Avenir-Book, Avenir"><tspan x="-21.203" y="0">12a</tspan></text>
            <line id="Line_39" data-name="Line 39" y1="5.599" transform="translate(287.5 204.901)" fill="none" stroke="#707070" stroke-width="1"/>
            <line id="Line_40" data-name="Line 40" y1="5.599" transform="translate(84.5 204.901)" fill="none" stroke="#707070" stroke-width="1"/>
            <line id="Line_41" data-name="Line 41" y1="5.599" transform="translate(145.5 204.901)" fill="none" stroke="#707070" stroke-width="1"/>
            <line id="Line_42" data-name="Line 42" y1="5.599" transform="translate(104.5 204.901)" fill="none" stroke="#707070" stroke-width="1"/>
            <line id="Line_43" data-name="Line 43" y1="5.599" transform="translate(124.5 204.901)" fill="none" stroke="#707070" stroke-width="1"/>
            <line id="Line_44" data-name="Line 44" y1="5.599" transform="translate(165.5 204.901)" fill="none" stroke="#707070" stroke-width="1"/>
            <line id="Line_45" data-name="Line 45" y1="5.599" transform="translate(185.5 204.901)" fill="none" stroke="#707070" stroke-width="1"/>
            <line id="Line_46" data-name="Line 46" y1="5.599" transform="translate(206.5 204.901)" fill="none" stroke="#707070" stroke-width="1"/>
            <line id="Line_47" data-name="Line 47" y1="5.599" transform="translate(226.5 204.901)" fill="none" stroke="#707070" stroke-width="1"/>
            <line id="Line_48" data-name="Line 48" y1="5.599" transform="translate(246.5 204.901)" fill="none" stroke="#707070" stroke-width="1"/>
            <line id="Line_49" data-name="Line 49" y1="5.599" transform="translate(267.5 204.901)" fill="none" stroke="#707070" stroke-width="1"/>
            <line id="Line_50" data-name="Line 50" y1="5.599" transform="translate(43.5 204.901)" fill="none" stroke="#707070" stroke-width="1"/>
            <line id="Line_51" data-name="Line 51" y1="5.599" transform="translate(307.5 204.901)" fill="none" stroke="#707070" stroke-width="1"/>
            <line id="Line_52" data-name="Line 52" y1="5.599" transform="translate(328.5 204.901)" fill="none" stroke="#707070" stroke-width="1"/>
            <line id="Line_53" data-name="Line 53" y1="5.599" transform="translate(348.5 204.901)" fill="none" stroke="#707070" stroke-width="1"/>
            <line id="Line_54" data-name="Line 54" y1="5.599" transform="translate(368.5 204.901)" fill="none" stroke="#707070" stroke-width="1"/>
            <line id="Line_55" data-name="Line 55" y1="5.599" transform="translate(409.5 204.901)" fill="none" stroke="#707070" stroke-width="1"/>
            <line id="Line_56" data-name="Line 56" y1="5.599" transform="translate(429.5 204.901)" fill="none" stroke="#707070" stroke-width="1"/>
            <line id="Line_57" data-name="Line 57" y1="5.599" transform="translate(389.5 204.901)" fill="none" stroke="#707070" stroke-width="1"/>
            <line id="Line_58" data-name="Line 58" y1="5.599" transform="translate(450.5 204.901)" fill="none" stroke="#707070" stroke-width="1"/>
            <line id="Line_59" data-name="Line 59" y1="5.599" transform="translate(470.5 204.901)" fill="none" stroke="#707070" stroke-width="1"/>
            <line id="Line_60" data-name="Line 60" y1="5.599" transform="translate(490.5 204.901)" fill="none" stroke="#707070" stroke-width="1"/>
            <line id="Line_61" data-name="Line 61" y1="5.599" transform="translate(63.5 204.901)" fill="none" stroke="#707070" stroke-width="1"/>
            <line id="Line_62" data-name="Line 62" y1="5.599" transform="translate(511.5 204.901)" fill="none" stroke="#707070" stroke-width="1"/>
            <text id="_10p" data-name="10p" transform="translate(421.256 231)" fill="gray" font-size="13" font-family="Avenir-Book, Avenir"><tspan x="-22.399" y="0">10p</tspan></text>
            <text id="_75" data-name="75" transform="translate(14.257 67)" fill="gray" font-size="13" font-family="Avenir-Book, Avenir"><tspan x="-14.456" y="0">75</tspan></text>
            <text id="_25" data-name="25" transform="translate(14.257 176)" fill="gray" font-size="13" font-family="Avenir-Book, Avenir"><tspan x="-14.456" y="0">25</tspan></text>
            <text id="_50" data-name="50" transform="translate(14.257 122)" fill="gray" font-size="13" font-family="Avenir-Book, Avenir"><tspan x="-14.456" y="0">50</tspan></text>
            <text id="_100" data-name="100" transform="translate(22.257 13)" fill="gray" font-size="13" font-family="Avenir-Book, Avenir"><tspan x="-21.684" y="0">100</tspan></text>
            <g id="Group_1144" data-name="Group 1144">
              <path id="Path_3948" data-name="Path 3948" d="M-19.3,103S-8.969,80.9,1.106,59.147,11.07,33.8,21,15.992,40.819-12.1,40.819-12.1s10.5-11.6,20.829-13.107,10.394,3.8,20.5,7.072,9.729,3.324,19.913,6.035,10.674,1.677,20.924,4.344,19.806,5.743,19.806,5.743a76.722,76.722,0,0,1,21.034,6.053c10.294,4.819,10.371,8.263,20.144,13.222a83.314,83.314,0,0,0,20.156,6.84s10.631,2.322,20.84,15.352,8.9,30.779,19.994,36.767c4.373,2.359,13.865,3.522,20.113,4.9,10.311,2.266,21.131,4.168,21.131,4.168l19.808,5.043,19.946,5.838,20.9,6.841" transform="translate(103.805 107.5)" fill="none" stroke="#6749aa" stroke-width="1"/>
              <g id="Ellipse_95" data-name="Ellipse 95" transform="translate(81.257 207)" fill="#fff" stroke="#6749aa" stroke-width="1">
                <circle cx="3.5" cy="3.5" r="3.5" stroke="none"/>
                <circle cx="3.5" cy="3.5" r="3" fill="none"/>
              </g>
              <g id="Ellipse_96" data-name="Ellipse 96" transform="translate(101.257 163)" fill="#fff" stroke="#6749aa" stroke-width="1">
                <circle cx="3.5" cy="3.5" r="3.5" stroke="none"/>
                <circle cx="3.5" cy="3.5" r="3" fill="none"/>
              </g>
              <g id="Ellipse_97" data-name="Ellipse 97" transform="translate(141.257 92)" fill="#fff" stroke="#6749aa" stroke-width="1">
                <circle cx="3.5" cy="3.5" r="3.5" stroke="none"/>
                <circle cx="3.5" cy="3.5" r="3" fill="none"/>
              </g>
              <g id="Ellipse_98" data-name="Ellipse 98" transform="translate(345.257 180)" fill="#fff" stroke="#6749aa" stroke-width="1">
                <circle cx="3.5" cy="3.5" r="3.5" stroke="none"/>
                <circle cx="3.5" cy="3.5" r="3" fill="none"/>
              </g>
              <g id="Ellipse_99" data-name="Ellipse 99" transform="translate(162.257 79)" fill="#fff" stroke="#6749aa" stroke-width="1">
                <circle cx="3.5" cy="3.5" r="3.5" stroke="none"/>
                <circle cx="3.5" cy="3.5" r="3" fill="none"/>
              </g>
              <g id="Ellipse_100" data-name="Ellipse 100" transform="translate(182.257 86)" fill="#fff" stroke="#6749aa" stroke-width="1">
                <circle cx="3.5" cy="3.5" r="3.5" stroke="none"/>
                <circle cx="3.5" cy="3.5" r="3" fill="none"/>
              </g>
              <g id="Ellipse_101" data-name="Ellipse 101" transform="translate(202.257 92)" fill="#fff" stroke="#6749aa" stroke-width="1">
                <circle cx="3.5" cy="3.5" r="3.5" stroke="none"/>
                <circle cx="3.5" cy="3.5" r="3" fill="none"/>
              </g>
              <g id="Ellipse_102" data-name="Ellipse 102" transform="translate(223.257 96)" fill="#fff" stroke="#6749aa" stroke-width="1">
                <circle cx="3.5" cy="3.5" r="3.5" stroke="none"/>
                <circle cx="3.5" cy="3.5" r="3" fill="none"/>
              </g>
              <g id="Ellipse_103" data-name="Ellipse 103" transform="translate(243.257 102)" fill="#fff" stroke="#6749aa" stroke-width="1">
                <circle cx="3.5" cy="3.5" r="3.5" stroke="none"/>
                <circle cx="3.5" cy="3.5" r="3" fill="none"/>
              </g>
              <g id="Ellipse_104" data-name="Ellipse 104" transform="translate(264.257 108)" fill="#fff" stroke="#6749aa" stroke-width="1">
                <circle cx="3.5" cy="3.5" r="3.5" stroke="none"/>
                <circle cx="3.5" cy="3.5" r="3" fill="none"/>
              </g>
              <g id="Ellipse_105" data-name="Ellipse 105" transform="translate(284.257 121)" fill="#fff" stroke="#6749aa" stroke-width="1">
                <circle cx="3.5" cy="3.5" r="3.5" stroke="none"/>
                <circle cx="3.5" cy="3.5" r="3" fill="none"/>
              </g>
              <g id="Ellipse_106" data-name="Ellipse 106" transform="translate(304.257 128)" fill="#fff" stroke="#6749aa" stroke-width="1">
                <circle cx="3.5" cy="3.5" r="3.5" stroke="none"/>
                <circle cx="3.5" cy="3.5" r="3" fill="none"/>
              </g>
              <g id="Ellipse_107" data-name="Ellipse 107" transform="translate(325.257 143)" fill="#fff" stroke="#6749aa" stroke-width="1">
                <circle cx="3.5" cy="3.5" r="3.5" stroke="none"/>
                <circle cx="3.5" cy="3.5" r="3" fill="none"/>
              </g>
              <g id="Ellipse_108" data-name="Ellipse 108" transform="translate(121.257 120)" fill="#fff" stroke="#6749aa" stroke-width="1">
                <circle cx="3.5" cy="3.5" r="3.5" stroke="none"/>
                <circle cx="3.5" cy="3.5" r="3" fill="none"/>
              </g>
              <g id="Ellipse_109" data-name="Ellipse 109" transform="translate(365.257 185)" fill="#fff" stroke="#6749aa" stroke-width="1">
                <circle cx="3.5" cy="3.5" r="3.5" stroke="none"/>
                <circle cx="3.5" cy="3.5" r="3" fill="none"/>
              </g>
              <g id="Ellipse_110" data-name="Ellipse 110" transform="translate(386.257 189)" fill="#fff" stroke="#6749aa" stroke-width="1">
                <circle cx="3.5" cy="3.5" r="3.5" stroke="none"/>
                <circle cx="3.5" cy="3.5" r="3" fill="none"/>
              </g>
              <g id="Ellipse_111" data-name="Ellipse 111" transform="translate(406.257 194)" fill="#fff" stroke="#6749aa" stroke-width="1">
                <circle cx="3.5" cy="3.5" r="3.5" stroke="none"/>
                <circle cx="3.5" cy="3.5" r="3" fill="none"/>
              </g>
              <g id="Ellipse_112" data-name="Ellipse 112" transform="translate(426.257 200)" fill="#fff" stroke="#6749aa" stroke-width="1">
                <circle cx="3.5" cy="3.5" r="3.5" stroke="none"/>
                <circle cx="3.5" cy="3.5" r="3" fill="none"/>
              </g>
              <g id="Ellipse_113" data-name="Ellipse 113" transform="translate(447.257 207)" fill="#fff" stroke="#6749aa" stroke-width="1">
                <circle cx="3.5" cy="3.5" r="3.5" stroke="none"/>
                <circle cx="3.5" cy="3.5" r="3" fill="none"/>
              </g>
            </g>
            <g id="Group_1145" data-name="Group 1145">
              <path id="Path_3948-2" data-name="Path 3948" d="M-19.3,103S-9.08,83.235,1,61.483s10.14-28.507,20.068-46.319S40.979-9.817,40.979-9.817s10.627-10.3,20.81-11.146,19.92,7.778,19.92,7.778S91.677.965,101.988,10.368s10.719,7.856,20.965,14.059,20.021,10.752,20.021,10.752S153.458,45.244,163.739,48.6s20.361,0,20.361,0a67.3,67.3,0,0,1,19.948,0c10.212,1.691,10.679,2.837,20.9,6.765s19.979,8.945,19.979,8.945,9.575,7.426,19.844,14.983S275.7,89.277,286,94.54s9.986,3.712,19.994,5.807a145.233,145.233,0,0,0,20.037,2.571" transform="translate(103.805 107.5)" fill="none" stroke="#aa496e" stroke-width="1"/>
              <g id="Ellipse_95-2" data-name="Ellipse 95" transform="translate(81.257 207)" fill="#fff" stroke="#aa496e" stroke-width="1">
                <circle cx="3.5" cy="3.5" r="3.5" stroke="none"/>
                <circle cx="3.5" cy="3.5" r="3" fill="none"/>
              </g>
              <g id="Ellipse_96-2" data-name="Ellipse 96" transform="translate(101.257 165)" fill="#fff" stroke="#aa496e" stroke-width="1">
                <circle cx="3.5" cy="3.5" r="3.5" stroke="none"/>
                <circle cx="3.5" cy="3.5" r="3" fill="none"/>
              </g>
              <g id="Ellipse_97-2" data-name="Ellipse 97" transform="translate(141.257 94)" fill="#fff" stroke="#aa496e" stroke-width="1">
                <circle cx="3.5" cy="3.5" r="3.5" stroke="none"/>
                <circle cx="3.5" cy="3.5" r="3" fill="none"/>
              </g>
              <g id="Ellipse_98-2" data-name="Ellipse 98" transform="translate(345.257 168)" fill="#fff" stroke="#aa496e" stroke-width="1">
                <circle cx="3.5" cy="3.5" r="3.5" stroke="none"/>
                <circle cx="3.5" cy="3.5" r="3" fill="none"/>
              </g>
              <g id="Ellipse_99-2" data-name="Ellipse 99" transform="translate(162.257 83)" fill="#fff" stroke="#aa496e" stroke-width="1">
                <circle cx="3.5" cy="3.5" r="3.5" stroke="none"/>
                <circle cx="3.5" cy="3.5" r="3" fill="none"/>
              </g>
              <g id="Ellipse_100-2" data-name="Ellipse 100" transform="translate(182.257 91)" fill="#fff" stroke="#aa496e" stroke-width="1">
                <circle cx="3.5" cy="3.5" r="3.5" stroke="none"/>
                <circle cx="3.5" cy="3.5" r="3" fill="none"/>
              </g>
              <g id="Ellipse_101-2" data-name="Ellipse 101" transform="translate(202.257 114)" fill="#fff" stroke="#aa496e" stroke-width="1">
                <circle cx="3.5" cy="3.5" r="3.5" stroke="none"/>
                <circle cx="3.5" cy="3.5" r="3" fill="none"/>
              </g>
              <g id="Ellipse_102-2" data-name="Ellipse 102" transform="translate(223.257 128)" fill="#fff" stroke="#aa496e" stroke-width="1">
                <circle cx="3.5" cy="3.5" r="3.5" stroke="none"/>
                <circle cx="3.5" cy="3.5" r="3" fill="none"/>
              </g>
              <g id="Ellipse_103-2" data-name="Ellipse 103" transform="translate(243.257 139)" fill="#fff" stroke="#aa496e" stroke-width="1">
                <circle cx="3.5" cy="3.5" r="3.5" stroke="none"/>
                <circle cx="3.5" cy="3.5" r="3" fill="none"/>
              </g>
              <g id="Ellipse_104-2" data-name="Ellipse 104" transform="translate(264.257 152)" fill="#fff" stroke="#aa496e" stroke-width="1">
                <circle cx="3.5" cy="3.5" r="3.5" stroke="none"/>
                <circle cx="3.5" cy="3.5" r="3" fill="none"/>
              </g>
              <g id="Ellipse_105-2" data-name="Ellipse 105" transform="translate(284.257 152)" fill="#fff" stroke="#aa496e" stroke-width="1">
                <circle cx="3.5" cy="3.5" r="3.5" stroke="none"/>
                <circle cx="3.5" cy="3.5" r="3" fill="none"/>
              </g>
              <g id="Ellipse_106-2" data-name="Ellipse 106" transform="translate(304.257 152)" fill="#fff" stroke="#aa496e" stroke-width="1">
                <circle cx="3.5" cy="3.5" r="3.5" stroke="none"/>
                <circle cx="3.5" cy="3.5" r="3" fill="none"/>
              </g>
              <g id="Ellipse_107-2" data-name="Ellipse 107" transform="translate(325.257 159)" fill="#fff" stroke="#aa496e" stroke-width="1">
                <circle cx="3.5" cy="3.5" r="3.5" stroke="none"/>
                <circle cx="3.5" cy="3.5" r="3" fill="none"/>
              </g>
              <g id="Ellipse_108-2" data-name="Ellipse 108" transform="translate(121.257 119)" fill="#fff" stroke="#aa496e" stroke-width="1">
                <circle cx="3.5" cy="3.5" r="3.5" stroke="none"/>
                <circle cx="3.5" cy="3.5" r="3" fill="none"/>
              </g>
              <g id="Ellipse_109-2" data-name="Ellipse 109" transform="translate(365.257 183)" fill="#fff" stroke="#aa496e" stroke-width="1">
                <circle cx="3.5" cy="3.5" r="3.5" stroke="none"/>
                <circle cx="3.5" cy="3.5" r="3" fill="none"/>
              </g>
              <g id="Ellipse_110-2" data-name="Ellipse 110" transform="translate(386.257 198)" fill="#fff" stroke="#aa496e" stroke-width="1">
                <circle cx="3.5" cy="3.5" r="3.5" stroke="none"/>
                <circle cx="3.5" cy="3.5" r="3" fill="none"/>
              </g>
              <g id="Ellipse_111-2" data-name="Ellipse 111" transform="translate(406.257 204)" fill="#fff" stroke="#aa496e" stroke-width="1">
                <circle cx="3.5" cy="3.5" r="3.5" stroke="none"/>
                <circle cx="3.5" cy="3.5" r="3" fill="none"/>
              </g>
              <g id="Ellipse_112-2" data-name="Ellipse 112" transform="translate(426.257 207)" fill="#fff" stroke="#aa496e" stroke-width="1">
                <circle cx="3.5" cy="3.5" r="3.5" stroke="none"/>
                <circle cx="3.5" cy="3.5" r="3" fill="none"/>
              </g>
            </g>
          </g>
        </g>
      </g>
      <text id="Starbucks_Los_Angeles_CA_" data-name="Starbucks
(Los Angeles, CA)" transform="translate(917 562)" fill="#4b4b4b" font-size="13" font-family="Avenir-Medium, Avenir" font-weight="500"><tspan x="0" y="0">Starbucks</tspan><tspan x="0" y="18">(Los Angeles, CA)</tspan></text>
      <g id="Ellipse_9" data-name="Ellipse 9" transform="translate(901 554)" fill="#ece9f6" stroke="#6749aa" stroke-width="1">
        <circle cx="4" cy="4" r="4" stroke="none"/>
        <circle cx="4" cy="4" r="3.5" fill="none"/>
      </g>
      <text id="Dunkin_Brands_Los_Angeles_CA_" data-name="Dunkin Brands
(Los Angeles, CA)" transform="translate(917 608)" fill="#4b4b4b" font-size="13" font-family="Avenir-Medium, Avenir" font-weight="500"><tspan x="0" y="0">Dunkin Brands</tspan><tspan x="0" y="18">(Los Angeles, CA)</tspan></text>
      <g id="Ellipse_74" data-name="Ellipse 74" transform="translate(901 600)" fill="#fff" stroke="#aa496e" stroke-width="1">
        <circle cx="4" cy="4" r="4" stroke="none"/>
        <circle cx="4" cy="4" r="3.5" fill="none"/>
      </g>
    </g>
    <text id="Customer_Activity" data-name="Customer Activity" transform="translate(326 483)" fill="#674ca7" font-size="18" font-family="Avenir-Heavy, Avenir" font-weight="800"><tspan x="0" y="0">Customer Activity</tspan></text>
    <g id="Group_1146" data-name="Group 1146" transform="translate(11572 10216)">
      <text id="Comparing_with_Dunkin_In_Los_Angeles_CA_" data-name="Comparing with Dunkin’ In Los Angeles, CA " transform="translate(-10533 -9734)" fill="#707070" font-size="13" font-family="Avenir-Medium, Avenir" font-weight="500"><tspan x="-266.708" y="0">Comparing with</tspan><tspan y="0" xml:space="preserve" fill="#674ca7" font-family="Avenir-Heavy, Avenir" font-weight="800"> Dunkin’ In Los Angeles, CA </tspan></text>
    </g>
  </g>
</svg>
