<svg xmlns="http://www.w3.org/2000/svg" xmlns:xlink="http://www.w3.org/1999/xlink" width="775" height="365" viewBox="0 0 775 365">
  <defs>
    <filter id="Rectangle_1505" x="0" y="0" width="775" height="365" filterUnits="userSpaceOnUse">
      <feOffset input="SourceAlpha"/>
      <feGaussianBlur stdDeviation="10" result="blur"/>
      <feFlood flood-color="#525252" flood-opacity="0.161"/>
      <feComposite operator="in" in2="blur"/>
      <feComposite in="SourceGraphic"/>
    </filter>
  </defs>
  <g id="Group_1346" data-name="Group 1346" transform="translate(-296 -465)">
    <g id="Group_1148" data-name="Group 1148" transform="translate(0 4)">
      <g id="Group_1147" data-name="Group 1147">
        <g id="Group_962" data-name="Group 962" transform="translate(107.743 -256)">
          <g transform="matrix(1, 0, 0, 1, 188.26, 717)" filter="url(#Rectangle_1505)">
            <rect id="Rectangle_1505-2" data-name="Rectangle 1505" width="715" height="305" rx="2" transform="translate(30 30)" fill="#fff"/>
          </g>
          <g id="Group_1081" data-name="Group 1081" transform="translate(233 789)">
            <line id="Line_34" data-name="Line 34" x2="484.65" transform="translate(36.5 210.5)" fill="none" stroke="#707070" stroke-width="1"/>
            <text id="_4a" data-name="4a" transform="translate(51.257 231)" fill="gray" font-size="13" font-family="Avenir-Book, Avenir"><tspan x="-13.975" y="0">4a</tspan></text>
            <text id="_6a" data-name="6a" transform="translate(92.256 231)" fill="gray" font-size="13" font-family="Avenir-Book, Avenir"><tspan x="-13.975" y="0">6a</tspan></text>
            <text id="_10a" data-name="10a" transform="translate(176.256 231)" fill="gray" font-size="13" font-family="Avenir-Book, Avenir"><tspan x="-21.203" y="0">10a</tspan></text>
            <text id="_8a" data-name="8a" transform="translate(132.256 231)" fill="gray" font-size="13" font-family="Avenir-Book, Avenir"><tspan x="-13.975" y="0">8a</tspan></text>
            <text id="_12p" data-name="12p" transform="translate(218.257 231)" fill="gray" font-size="13" font-family="Avenir-Book, Avenir"><tspan x="-22.399" y="0">12p</tspan></text>
            <text id="_2p" data-name="2p" transform="translate(254.257 231)" fill="gray" font-size="13" font-family="Avenir-Book, Avenir"><tspan x="-15.171" y="0">2p</tspan></text>
            <text id="_2a" data-name="2a" transform="translate(498.257 231)" fill="gray" font-size="13" font-family="Avenir-Book, Avenir"><tspan x="-13.975" y="0">2a</tspan></text>
            <text id="_4p" data-name="4p" transform="translate(295.256 231)" fill="gray" font-size="13" font-family="Avenir-Book, Avenir"><tspan x="-15.171" y="0">4p</tspan></text>
            <text id="_6p" data-name="6p" transform="translate(336.257 231)" fill="gray" font-size="13" font-family="Avenir-Book, Avenir"><tspan x="-15.171" y="0">6p</tspan></text>
            <text id="_8p" data-name="8p" transform="translate(376.257 231)" fill="gray" font-size="13" font-family="Avenir-Book, Avenir"><tspan x="-15.171" y="0">8p</tspan></text>
            <text id="_12a" data-name="12a" transform="translate(462.257 231)" fill="gray" font-size="13" font-family="Avenir-Book, Avenir"><tspan x="-21.203" y="0">12a</tspan></text>
            <line id="Line_39" data-name="Line 39" y1="5.599" transform="translate(287.5 204.901)" fill="none" stroke="#707070" stroke-width="1"/>
            <line id="Line_40" data-name="Line 40" y1="5.599" transform="translate(84.5 204.901)" fill="none" stroke="#707070" stroke-width="1"/>
            <line id="Line_41" data-name="Line 41" y1="5.599" transform="translate(145.5 204.901)" fill="none" stroke="#707070" stroke-width="1"/>
            <line id="Line_42" data-name="Line 42" y1="5.599" transform="translate(104.5 204.901)" fill="none" stroke="#707070" stroke-width="1"/>
            <line id="Line_43" data-name="Line 43" y1="5.599" transform="translate(124.5 204.901)" fill="none" stroke="#707070" stroke-width="1"/>
            <line id="Line_44" data-name="Line 44" y1="5.599" transform="translate(165.5 204.901)" fill="none" stroke="#707070" stroke-width="1"/>
            <line id="Line_45" data-name="Line 45" y1="5.599" transform="translate(185.5 204.901)" fill="none" stroke="#707070" stroke-width="1"/>
            <line id="Line_46" data-name="Line 46" y1="5.599" transform="translate(206.5 204.901)" fill="none" stroke="#707070" stroke-width="1"/>
            <line id="Line_47" data-name="Line 47" y1="5.599" transform="translate(226.5 204.901)" fill="none" stroke="#707070" stroke-width="1"/>
            <line id="Line_48" data-name="Line 48" y1="5.599" transform="translate(246.5 204.901)" fill="none" stroke="#707070" stroke-width="1"/>
            <line id="Line_49" data-name="Line 49" y1="5.599" transform="translate(267.5 204.901)" fill="none" stroke="#707070" stroke-width="1"/>
            <line id="Line_50" data-name="Line 50" y1="5.599" transform="translate(43.5 204.901)" fill="none" stroke="#707070" stroke-width="1"/>
            <line id="Line_51" data-name="Line 51" y1="5.599" transform="translate(307.5 204.901)" fill="none" stroke="#707070" stroke-width="1"/>
            <line id="Line_52" data-name="Line 52" y1="5.599" transform="translate(328.5 204.901)" fill="none" stroke="#707070" stroke-width="1"/>
            <line id="Line_53" data-name="Line 53" y1="5.599" transform="translate(348.5 204.901)" fill="none" stroke="#707070" stroke-width="1"/>
            <line id="Line_54" data-name="Line 54" y1="5.599" transform="translate(368.5 204.901)" fill="none" stroke="#707070" stroke-width="1"/>
            <line id="Line_55" data-name="Line 55" y1="5.599" transform="translate(409.5 204.901)" fill="none" stroke="#707070" stroke-width="1"/>
            <line id="Line_56" data-name="Line 56" y1="5.599" transform="translate(429.5 204.901)" fill="none" stroke="#707070" stroke-width="1"/>
            <line id="Line_57" data-name="Line 57" y1="5.599" transform="translate(389.5 204.901)" fill="none" stroke="#707070" stroke-width="1"/>
            <line id="Line_58" data-name="Line 58" y1="5.599" transform="translate(450.5 204.901)" fill="none" stroke="#707070" stroke-width="1"/>
            <line id="Line_59" data-name="Line 59" y1="5.599" transform="translate(470.5 204.901)" fill="none" stroke="#707070" stroke-width="1"/>
            <line id="Line_60" data-name="Line 60" y1="5.599" transform="translate(490.5 204.901)" fill="none" stroke="#707070" stroke-width="1"/>
            <line id="Line_61" data-name="Line 61" y1="5.599" transform="translate(63.5 204.901)" fill="none" stroke="#707070" stroke-width="1"/>
            <line id="Line_62" data-name="Line 62" y1="5.599" transform="translate(511.5 204.901)" fill="none" stroke="#707070" stroke-width="1"/>
            <text id="_10p" data-name="10p" transform="translate(421.256 231)" fill="gray" font-size="13" font-family="Avenir-Book, Avenir"><tspan x="-22.399" y="0">10p</tspan></text>
            <text id="_75" data-name="75" transform="translate(14.257 67)" fill="gray" font-size="13" font-family="Avenir-Book, Avenir"><tspan x="-14.456" y="0">75</tspan></text>
            <text id="_25" data-name="25" transform="translate(14.257 176)" fill="gray" font-size="13" font-family="Avenir-Book, Avenir"><tspan x="-14.456" y="0">25</tspan></text>
            <text id="_50" data-name="50" transform="translate(14.257 122)" fill="gray" font-size="13" font-family="Avenir-Book, Avenir"><tspan x="-14.456" y="0">50</tspan></text>
            <text id="_100" data-name="100" transform="translate(22.257 13)" fill="gray" font-size="13" font-family="Avenir-Book, Avenir"><tspan x="-21.684" y="0">100</tspan></text>
            <g id="Group_1144" data-name="Group 1144">
              <path id="Path_3948" data-name="Path 3948" d="M-19.3,103s9.034-.134,19.109-21.886c5.189-11.2,17.547-28.616,20.43-31.953,2.333-2.7-4.815,8.639,0,0,9.928-17.812,18.942-31.9,18.942-31.9S51.953-6.248,62.284-7.757c2.046-.3,2.368-3.4,3.943-4.344,3.537-2.107,5.815-3.444,9.782-3.783,1.318-.119,3.083-.807,5.57,0,10.1,3.277,10.294,1.073,20.478,3.783s10.674,1.677,20.924,4.344a146.422,146.422,0,0,0,21.448,3.6h0c3.1.511,15.6,2.2,19.883,4.208,2.6,1.219,1.067-.333,3.045,0,4.633.79,10.361,1.093,17.661,4.8,3.215,1.631,2.731,0,2.731,0l16.524,2.527s8.3,3.088,20.6,15.61c2.591,3.307,5.3,4.447,9.342,8.6,4.562,4.685,9.316,12.385,11.21,14.49,2.239,2.491-4.784-2.581,0,0,.765.413-1.194-1.663,0,0,.633.88,3.129,4.844,5.563,7.972,5,6.418,11.992,14.625,14.423,18.35,3.984,6.1-2.861-.629,0,0,10.311,2.266,19.875,8.726,19.875,8.726l19.991,5.919,20.671,9.13,20.9,6.841" transform="translate(103.805 108.5)" fill="none" stroke="#6749aa" stroke-width="1"/>
              <g id="Ellipse_95" data-name="Ellipse 95" transform="translate(81.257 207)" fill="#fff" stroke="#6749aa" stroke-width="1">
                <circle cx="3.5" cy="3.5" r="3.5" stroke="none"/>
                <circle cx="3.5" cy="3.5" r="3" fill="none"/>
              </g>
              <g id="Ellipse_96" data-name="Ellipse 96" transform="translate(100.257 184)" fill="#fff" stroke="#6749aa" stroke-width="1">
                <circle cx="3.5" cy="3.5" r="3.5" stroke="none"/>
                <circle cx="3.5" cy="3.5" r="3" fill="none"/>
              </g>
              <g id="Ellipse_97" data-name="Ellipse 97" transform="translate(140.257 121)" fill="#fff" stroke="#6749aa" stroke-width="1">
                <circle cx="3.5" cy="3.5" r="3.5" stroke="none"/>
                <circle cx="3.5" cy="3.5" r="3" fill="none"/>
              </g>
              <g id="Path_4019" data-name="Path 4019" transform="translate(345.257 151)" fill="#fff">
                <path d="M 3.5 6.5 C 1.845790028572083 6.5 0.5 5.154210090637207 0.5 3.5 C 0.5 1.845790028572083 1.845790028572083 0.5 3.5 0.5 C 5.154210090637207 0.5 6.5 1.845790028572083 6.5 3.5 C 6.5 5.154210090637207 5.154210090637207 6.5 3.5 6.5 Z" stroke="none"/>
                <path d="M 3.5 1 C 2.121500015258789 1 1 2.121500015258789 1 3.5 C 1 4.878499984741211 2.121500015258789 6 3.5 6 C 4.878499984741211 6 6 4.878499984741211 6 3.5 C 6 2.121500015258789 4.878499984741211 1 3.5 1 M 3.5 0 C 5.433000087738037 0 7 1.566999912261963 7 3.5 C 7 5.433000087738037 5.433000087738037 7 3.5 7 C 1.566999912261963 7 0 5.433000087738037 0 3.5 C 0 1.566999912261963 1.566999912261963 0 3.5 0 Z" stroke="none" fill="#6749aa"/>
              </g>
              <g id="Ellipse_99" data-name="Ellipse 99" transform="translate(162.257 95)" fill="#fff" stroke="#6749aa" stroke-width="1">
                <circle cx="3.5" cy="3.5" r="3.5" stroke="none"/>
                <circle cx="3.5" cy="3.5" r="3" fill="none"/>
              </g>
              <g id="Ellipse_100" data-name="Ellipse 100" transform="translate(181.257 89)" fill="#fff" stroke="#6749aa" stroke-width="1">
                <circle cx="3.5" cy="3.5" r="3.5" stroke="none"/>
                <circle cx="3.5" cy="3.5" r="3" fill="none"/>
              </g>
              <g id="Ellipse_101" data-name="Ellipse 101" transform="translate(202.257 92)" fill="#fff" stroke="#6749aa" stroke-width="1">
                <circle cx="3.5" cy="3.5" r="3.5" stroke="none"/>
                <circle cx="3.5" cy="3.5" r="3" fill="none"/>
              </g>
              <g id="Ellipse_102" data-name="Ellipse 102" transform="translate(223.257 96)" fill="#fff" stroke="#6749aa" stroke-width="1">
                <circle cx="3.5" cy="3.5" r="3.5" stroke="none"/>
                <circle cx="3.5" cy="3.5" r="3" fill="none"/>
              </g>
              <g id="Ellipse_103" data-name="Ellipse 103" transform="translate(244.257 99)" fill="#fff" stroke="#6749aa" stroke-width="1">
                <circle cx="3.5" cy="3.5" r="3.5" stroke="none"/>
                <circle cx="3.5" cy="3.5" r="3" fill="none"/>
              </g>
              <g id="Ellipse_104" data-name="Ellipse 104" transform="translate(264.257 104)" fill="#fff" stroke="#6749aa" stroke-width="1">
                <circle cx="3.5" cy="3.5" r="3.5" stroke="none"/>
                <circle cx="3.5" cy="3.5" r="3" fill="none"/>
              </g>
              <g id="Ellipse_105" data-name="Ellipse 105" transform="translate(285.257 109)" fill="#fff" stroke="#6749aa" stroke-width="1">
                <circle cx="3.5" cy="3.5" r="3.5" stroke="none"/>
                <circle cx="3.5" cy="3.5" r="3" fill="none"/>
              </g>
              <g id="Ellipse_106" data-name="Ellipse 106" transform="translate(304.257 113)" fill="#fff" stroke="#6749aa" stroke-width="1">
                <circle cx="3.5" cy="3.5" r="3.5" stroke="none"/>
                <circle cx="3.5" cy="3.5" r="3" fill="none"/>
              </g>
              <g id="Ellipse_107" data-name="Ellipse 107" transform="translate(324.257 128)" fill="#fff" stroke="#6749aa" stroke-width="1">
                <circle cx="3.5" cy="3.5" r="3.5" stroke="none"/>
                <circle cx="3.5" cy="3.5" r="3" fill="none"/>
              </g>
              <g id="Ellipse_108" data-name="Ellipse 108" transform="translate(120.257 154)" fill="#fff" stroke="#6749aa" stroke-width="1">
                <circle cx="3.5" cy="3.5" r="3.5" stroke="none"/>
                <circle cx="3.5" cy="3.5" r="3" fill="none"/>
              </g>
              <g id="Ellipse_109" data-name="Ellipse 109" transform="translate(365.257 177)" fill="#fff" stroke="#6749aa" stroke-width="1">
                <circle cx="3.5" cy="3.5" r="3.5" stroke="none"/>
                <circle cx="3.5" cy="3.5" r="3" fill="none"/>
              </g>
              <g id="Ellipse_110" data-name="Ellipse 110" transform="translate(385.257 186)" fill="#fff" stroke="#6749aa" stroke-width="1">
                <circle cx="3.5" cy="3.5" r="3.5" stroke="none"/>
                <circle cx="3.5" cy="3.5" r="3" fill="none"/>
              </g>
              <g id="Ellipse_111" data-name="Ellipse 111" transform="translate(406.257 191)" fill="#fff" stroke="#6749aa" stroke-width="1">
                <circle cx="3.5" cy="3.5" r="3.5" stroke="none"/>
                <circle cx="3.5" cy="3.5" r="3" fill="none"/>
              </g>
              <g id="Ellipse_112" data-name="Ellipse 112" transform="translate(426.257 200)" fill="#fff" stroke="#6749aa" stroke-width="1">
                <circle cx="3.5" cy="3.5" r="3.5" stroke="none"/>
                <circle cx="3.5" cy="3.5" r="3" fill="none"/>
              </g>
              <g id="Ellipse_113" data-name="Ellipse 113" transform="translate(447.257 207)" fill="#fff" stroke="#6749aa" stroke-width="1">
                <circle cx="3.5" cy="3.5" r="3.5" stroke="none"/>
                <circle cx="3.5" cy="3.5" r="3" fill="none"/>
              </g>
            </g>
            <g id="Group_1145" data-name="Group 1145" transform="translate(82)">
              <path id="Path_3948-2" data-name="Path 3948" d="M-19.3,103S-10.678,73.434-.6,51.682c3.244-7,20.25-19.146,22.743-20.4,4.364-2.223-6.731,12.077,0,0C25.576,25.116,38.162,16.636,41.3,13.864h0s10.787-6.416,20.97-7.258a154.886,154.886,0,0,1,21.188,0s7.561-.463,18.526,3.762,12.891,1.619,21.544,0S143.326-.16,143.326-.16,155.586-9.9,164.48-9.49s20.2,0,20.2,0A39.619,39.619,0,0,1,202.832-.16c8.459,7.705,11.365,32.019,21.584,35.946,2,.77,3.118,5.354,5.282,7.064,7.646,6.035,15.1,13.385,15.1,13.385A144.121,144.121,0,0,1,265.3,68.7C275.573,76.257,275.7,89.277,286,94.54s9.986,3.712,19.994,5.807a145.233,145.233,0,0,0,20.037,2.571" transform="translate(103.805 107.5)" fill="none" stroke="#aa496e" stroke-width="1"/>
              <g id="Ellipse_95-2" data-name="Ellipse 95" transform="translate(81.257 207)" fill="#fff" stroke="#aa496e" stroke-width="1">
                <circle cx="3.5" cy="3.5" r="3.5" stroke="none"/>
                <circle cx="3.5" cy="3.5" r="3" fill="none"/>
              </g>
              <g id="Ellipse_96-2" data-name="Ellipse 96" transform="translate(99.257 156)" fill="#fff" stroke="#aa496e" stroke-width="1">
                <circle cx="3.5" cy="3.5" r="3.5" stroke="none"/>
                <circle cx="3.5" cy="3.5" r="3" fill="none"/>
              </g>
              <g id="Ellipse_97-2" data-name="Ellipse 97" transform="translate(141.257 118)" fill="#fff" stroke="#aa496e" stroke-width="1">
                <circle cx="3.5" cy="3.5" r="3.5" stroke="none"/>
                <circle cx="3.5" cy="3.5" r="3" fill="none"/>
              </g>
              <g id="Ellipse_98" data-name="Ellipse 98" transform="translate(345.257 160)" fill="#fff" stroke="#aa496e" stroke-width="1">
                <circle cx="3.5" cy="3.5" r="3.5" stroke="none"/>
                <circle cx="3.5" cy="3.5" r="3" fill="none"/>
              </g>
              <g id="Ellipse_99-2" data-name="Ellipse 99" transform="translate(162.257 111)" fill="#fff" stroke="#aa496e" stroke-width="1">
                <circle cx="3.5" cy="3.5" r="3.5" stroke="none"/>
                <circle cx="3.5" cy="3.5" r="3" fill="none"/>
              </g>
              <g id="Ellipse_100-2" data-name="Ellipse 100" transform="translate(183.257 111)" fill="#fff" stroke="#aa496e" stroke-width="1">
                <circle cx="3.5" cy="3.5" r="3.5" stroke="none"/>
                <circle cx="3.5" cy="3.5" r="3" fill="none"/>
              </g>
              <g id="Ellipse_101-2" data-name="Ellipse 101" transform="translate(203.257 115)" fill="#fff" stroke="#aa496e" stroke-width="1">
                <circle cx="3.5" cy="3.5" r="3.5" stroke="none"/>
                <circle cx="3.5" cy="3.5" r="3" fill="none"/>
              </g>
              <g id="Ellipse_102-2" data-name="Ellipse 102" transform="translate(223.257 115)" fill="#fff" stroke="#aa496e" stroke-width="1">
                <circle cx="3.5" cy="3.5" r="3.5" stroke="none"/>
                <circle cx="3.5" cy="3.5" r="3" fill="none"/>
              </g>
              <g id="Ellipse_103-2" data-name="Ellipse 103" transform="translate(243.257 104)" fill="#fff" stroke="#aa496e" stroke-width="1">
                <circle cx="3.5" cy="3.5" r="3.5" stroke="none"/>
                <circle cx="3.5" cy="3.5" r="3" fill="none"/>
              </g>
              <g id="Ellipse_104-2" data-name="Ellipse 104" transform="translate(264.257 94)" fill="#fff" stroke="#aa496e" stroke-width="1">
                <circle cx="3.5" cy="3.5" r="3.5" stroke="none"/>
                <circle cx="3.5" cy="3.5" r="3" fill="none"/>
              </g>
              <g id="Ellipse_105-2" data-name="Ellipse 105" transform="translate(285.257 94)" fill="#fff" stroke="#aa496e" stroke-width="1">
                <circle cx="3.5" cy="3.5" r="3.5" stroke="none"/>
                <circle cx="3.5" cy="3.5" r="3" fill="none"/>
              </g>
              <g id="Ellipse_106-2" data-name="Ellipse 106" transform="translate(303.257 104)" fill="#fff" stroke="#aa496e" stroke-width="1">
                <circle cx="3.5" cy="3.5" r="3.5" stroke="none"/>
                <circle cx="3.5" cy="3.5" r="3" fill="none"/>
              </g>
              <g id="Ellipse_107-2" data-name="Ellipse 107" transform="translate(324.257 140)" fill="#fff" stroke="#aa496e" stroke-width="1">
                <circle cx="3.5" cy="3.5" r="3.5" stroke="none"/>
                <circle cx="3.5" cy="3.5" r="3" fill="none"/>
              </g>
              <g id="Ellipse_108-2" data-name="Ellipse 108" transform="translate(122.257 136)" fill="#fff" stroke="#aa496e" stroke-width="1">
                <circle cx="3.5" cy="3.5" r="3.5" stroke="none"/>
                <circle cx="3.5" cy="3.5" r="3" fill="none"/>
              </g>
              <g id="Ellipse_109-2" data-name="Ellipse 109" transform="translate(365.257 173)" fill="#fff" stroke="#aa496e" stroke-width="1">
                <circle cx="3.5" cy="3.5" r="3.5" stroke="none"/>
                <circle cx="3.5" cy="3.5" r="3" fill="none"/>
              </g>
              <g id="Ellipse_110-2" data-name="Ellipse 110" transform="translate(386.257 198)" fill="#fff" stroke="#aa496e" stroke-width="1">
                <circle cx="3.5" cy="3.5" r="3.5" stroke="none"/>
                <circle cx="3.5" cy="3.5" r="3" fill="none"/>
              </g>
              <g id="Ellipse_111-2" data-name="Ellipse 111" transform="translate(406.257 204)" fill="#fff" stroke="#aa496e" stroke-width="1">
                <circle cx="3.5" cy="3.5" r="3.5" stroke="none"/>
                <circle cx="3.5" cy="3.5" r="3" fill="none"/>
              </g>
              <g id="Ellipse_112-2" data-name="Ellipse 112" transform="translate(426.257 207)" fill="#fff" stroke="#aa496e" stroke-width="1">
                <circle cx="3.5" cy="3.5" r="3.5" stroke="none"/>
                <circle cx="3.5" cy="3.5" r="3" fill="none"/>
              </g>
            </g>
          </g>
          <g id="Group_1342" data-name="Group 1342" transform="translate(233 768)">
            <path id="Path_3948-3" data-name="Path 3948" d="M-18.3,122.919S-9.659,94.141.417,72.389c5.189-11.2,14.337-61.681,17.22-65.018,2.333-2.7-4.815,8.639,0,0C24.319-4.618,35.45-25,40.551-26.906c.541-.228-.521-1.022,0,0h0S51.268-37.085,61.6-38.594c2.046-.3,18.4-5.01,19.98-5.954,3.537-2.107-3.968,1.843,0,1.5,1.318-.119,17.685-.807,20.173,0,10.012,1.175,8.414.647,18.6,3.357.577.154,1.634-.16,2.655,0,5.489,1.063,16.148.629,21.424,3.4,3.492.972,15.168,1.7,19.883,2.929,10.25,2.667,20.706,17.186,20.706,17.186s5.573,19.369,7.081,33.22c2.587,23.765,4.124,55.728,5.862,79.1,1.089,14.647,5.8,18.79,7.273,19.034.313.052,7.9,6.946,19.542,7.447,38.83,1.672,128.883-1.251,182.751.318" transform="translate(103.805 108.5)" fill="none" stroke="#5eb3e2" stroke-width="1"/>
            <g id="Ellipse_95-3" data-name="Ellipse 95" transform="translate(81.257 228)" fill="#fff" stroke="#5eb3e2" stroke-width="1">
              <circle cx="3.5" cy="3.5" r="3.5" stroke="none"/>
              <circle cx="3.5" cy="3.5" r="3" fill="none"/>
            </g>
            <g id="Ellipse_96-3" data-name="Ellipse 96" transform="translate(100.257 177)" fill="#fff" stroke="#5eb3e2" stroke-width="1">
              <circle cx="3.5" cy="3.5" r="3.5" stroke="none"/>
              <circle cx="3.5" cy="3.5" r="3" fill="none"/>
            </g>
            <g id="Ellipse_97-3" data-name="Ellipse 97" transform="translate(141.257 78)" fill="#fff" stroke="#5eb3e2" stroke-width="1">
              <circle cx="3.5" cy="3.5" r="3.5" stroke="none"/>
              <circle cx="3.5" cy="3.5" r="3" fill="none"/>
            </g>
            <g id="Path_4019-2" data-name="Path 4019" transform="translate(346.257 228)" fill="#fff">
              <path d="M 3.5 6.5 C 1.845790028572083 6.5 0.5 5.154210090637207 0.5 3.5 C 0.5 1.845790028572083 1.845790028572083 0.5 3.5 0.5 C 5.154210090637207 0.5 6.5 1.845790028572083 6.5 3.5 C 6.5 5.154210090637207 5.154210090637207 6.5 3.5 6.5 Z" stroke="none"/>
              <path d="M 3.5 1 C 2.121500015258789 1 1 2.121500015258789 1 3.5 C 1 4.878499984741211 2.121500015258789 6 3.5 6 C 4.878499984741211 6 6 4.878499984741211 6 3.5 C 6 2.121500015258789 4.878499984741211 1 3.5 1 M 3.5 0 C 5.433000087738037 0 7 1.566999912261963 7 3.5 C 7 5.433000087738037 5.433000087738037 7 3.5 7 C 1.566999912261963 7 0 5.433000087738037 0 3.5 C 0 1.566999912261963 1.566999912261963 0 3.5 0 Z" stroke="none" fill="#5eb3e2"/>
            </g>
            <g id="Ellipse_99-3" data-name="Ellipse 99" transform="translate(161.257 66)" fill="#fff" stroke="#5eb3e2" stroke-width="1">
              <circle cx="3.5" cy="3.5" r="3.5" stroke="none"/>
              <circle cx="3.5" cy="3.5" r="3" fill="none"/>
            </g>
            <g id="Ellipse_100-3" data-name="Ellipse 100" transform="translate(181.257 61)" fill="#fff" stroke="#5eb3e2" stroke-width="1">
              <circle cx="3.5" cy="3.5" r="3.5" stroke="none"/>
              <circle cx="3.5" cy="3.5" r="3" fill="none"/>
            </g>
            <g id="Ellipse_101-3" data-name="Ellipse 101" transform="translate(202.257 62)" fill="#fff" stroke="#5eb3e2" stroke-width="1">
              <circle cx="3.5" cy="3.5" r="3.5" stroke="none"/>
              <circle cx="3.5" cy="3.5" r="3" fill="none"/>
            </g>
            <g id="Ellipse_102-3" data-name="Ellipse 102" transform="translate(222.257 65)" fill="#fff" stroke="#5eb3e2" stroke-width="1">
              <circle cx="3.5" cy="3.5" r="3.5" stroke="none"/>
              <circle cx="3.5" cy="3.5" r="3" fill="none"/>
            </g>
            <g id="Ellipse_103-3" data-name="Ellipse 103" transform="translate(244.257 68)" fill="#fff" stroke="#5eb3e2" stroke-width="1">
              <circle cx="3.5" cy="3.5" r="3.5" stroke="none"/>
              <circle cx="3.5" cy="3.5" r="3" fill="none"/>
            </g>
            <g id="Ellipse_104-3" data-name="Ellipse 104" transform="translate(264.257 72)" fill="#fff" stroke="#5eb3e2" stroke-width="1">
              <circle cx="3.5" cy="3.5" r="3.5" stroke="none"/>
              <circle cx="3.5" cy="3.5" r="3" fill="none"/>
            </g>
            <g id="Ellipse_105-3" data-name="Ellipse 105" transform="translate(285.257 89)" fill="#fff" stroke="#5eb3e2" stroke-width="1">
              <circle cx="3.5" cy="3.5" r="3.5" stroke="none"/>
              <circle cx="3.5" cy="3.5" r="3" fill="none"/>
            </g>
            <g id="Ellipse_106-3" data-name="Ellipse 106" transform="translate(304.257 219)" fill="#fff" stroke="#5eb3e2" stroke-width="1">
              <circle cx="3.5" cy="3.5" r="3.5" stroke="none"/>
              <circle cx="3.5" cy="3.5" r="3" fill="none"/>
            </g>
            <g id="Ellipse_107-3" data-name="Ellipse 107" transform="translate(325.257 228)" fill="#fff" stroke="#5eb3e2" stroke-width="1">
              <circle cx="3.5" cy="3.5" r="3.5" stroke="none"/>
              <circle cx="3.5" cy="3.5" r="3" fill="none"/>
            </g>
            <g id="Ellipse_108-3" data-name="Ellipse 108" transform="translate(118.257 113)" fill="#fff" stroke="#5eb3e2" stroke-width="1">
              <circle cx="3.5" cy="3.5" r="3.5" stroke="none"/>
              <circle cx="3.5" cy="3.5" r="3" fill="none"/>
            </g>
            <g id="Ellipse_109-3" data-name="Ellipse 109" transform="translate(365.257 228)" fill="#fff" stroke="#5eb3e2" stroke-width="1">
              <circle cx="3.5" cy="3.5" r="3.5" stroke="none"/>
              <circle cx="3.5" cy="3.5" r="3" fill="none"/>
            </g>
            <g id="Ellipse_110-3" data-name="Ellipse 110" transform="translate(386.257 228)" fill="#fff" stroke="#5eb3e2" stroke-width="1">
              <circle cx="3.5" cy="3.5" r="3.5" stroke="none"/>
              <circle cx="3.5" cy="3.5" r="3" fill="none"/>
            </g>
            <g id="Ellipse_111-3" data-name="Ellipse 111" transform="translate(406.257 228)" fill="#fff" stroke="#5eb3e2" stroke-width="1">
              <circle cx="3.5" cy="3.5" r="3.5" stroke="none"/>
              <circle cx="3.5" cy="3.5" r="3" fill="none"/>
            </g>
            <g id="Ellipse_112-3" data-name="Ellipse 112" transform="translate(426.257 228)" fill="#fff" stroke="#5eb3e2" stroke-width="1">
              <circle cx="3.5" cy="3.5" r="3.5" stroke="none"/>
              <circle cx="3.5" cy="3.5" r="3" fill="none"/>
            </g>
            <g id="Ellipse_113-2" data-name="Ellipse 113" transform="translate(447.257 228)" fill="#fff" stroke="#5eb3e2" stroke-width="1">
              <circle cx="3.5" cy="3.5" r="3.5" stroke="none"/>
              <circle cx="3.5" cy="3.5" r="3" fill="none"/>
            </g>
          </g>
          <g id="Ellipse_115" data-name="Ellipse 115" transform="translate(700.257 996)" fill="#fff" stroke="#5eb3e2" stroke-width="1">
            <circle cx="3.5" cy="3.5" r="3.5" stroke="none"/>
            <circle cx="3.5" cy="3.5" r="3" fill="none"/>
          </g>
          <g id="Ellipse_116" data-name="Ellipse 116" transform="translate(721.257 996)" fill="#fff" stroke="#5eb3e2" stroke-width="1">
            <circle cx="3.5" cy="3.5" r="3.5" stroke="none"/>
            <circle cx="3.5" cy="3.5" r="3" fill="none"/>
          </g>
          <g id="Ellipse_117" data-name="Ellipse 117" transform="translate(741.257 996)" fill="#fff" stroke="#5eb3e2" stroke-width="1">
            <circle cx="3.5" cy="3.5" r="3.5" stroke="none"/>
            <circle cx="3.5" cy="3.5" r="3" fill="none"/>
          </g>
        </g>
      </g>
      <text id="Starbucks_Atlanta_GA_" data-name="Starbucks
(Atlanta, GA)" transform="translate(896 562)" fill="#4b4b4b" font-size="13" font-family="Avenir-Medium, Avenir" font-weight="500"><tspan x="0" y="0">Starbucks</tspan><tspan x="0" y="18">(Atlanta, GA)</tspan></text>
      <g id="Ellipse_9" data-name="Ellipse 9" transform="translate(880 554)" fill="#ece9f6" stroke="#6749aa" stroke-width="1">
        <circle cx="4" cy="4" r="4" stroke="none"/>
        <circle cx="4" cy="4" r="3.5" fill="none"/>
      </g>
      <text id="Hodgepodge_Coffeehouse_720_Moreland_Ave_Atlanta_GA_" data-name="Hodgepodge
Coffeehouse
(720 Moreland Ave, 
Atlanta, GA)" transform="translate(896 608)" fill="#4b4b4b" font-size="13" font-family="Avenir-Medium, Avenir" font-weight="500"><tspan x="0" y="0">Hodgepodge</tspan><tspan x="0" y="18">Coffeehouse</tspan><tspan x="0" y="36">(720 Moreland Ave, </tspan><tspan x="0" y="54">Atlanta, GA)</tspan></text>
      <g id="Ellipse_74" data-name="Ellipse 74" transform="translate(880 600)" fill="#fff" stroke="#5eb3e2" stroke-width="1">
        <circle cx="4" cy="4" r="4" stroke="none"/>
        <circle cx="4" cy="4" r="3.5" fill="none"/>
      </g>
      <text id="Wingstop_Atlanta_GA_" data-name="Wingstop
(Atlanta, GA)" transform="translate(896 690)" fill="#4b4b4b" font-size="13" font-family="Avenir-Medium, Avenir" font-weight="500"><tspan x="0" y="0">Wingstop</tspan><tspan x="0" y="18">(Atlanta, GA)</tspan></text>
      <g id="Ellipse_114" data-name="Ellipse 114" transform="translate(880 682)" fill="#fff" stroke="#ac4d72" stroke-width="1">
        <circle cx="4" cy="4" r="4" stroke="none"/>
        <circle cx="4" cy="4" r="3.5" fill="none"/>
      </g>
    </g>
    <text id="Customer_Activity" data-name="Customer Activity" transform="translate(326 483)" fill="#674ca7" font-size="18" font-family="Avenir-Heavy, Avenir" font-weight="800"><tspan x="0" y="0">Customer Activity</tspan></text>
    <g id="Group_1146" data-name="Group 1146" transform="translate(11572 10216)">
      <text id="Comparing_with_Hodgepodge_and_Wingstop_in_Atlanta_GA" data-name="Comparing with Hodgepodge and Wingstop in Atlanta, GA" transform="translate(-10533 -9734)" fill="#707070" font-size="13" font-family="Avenir-Medium, Avenir" font-weight="500"><tspan x="-358.709" y="0">Comparing with</tspan><tspan y="0" xml:space="preserve" fill="#674ca7" font-family="Avenir-Heavy, Avenir" font-weight="800"> Hodgepodge and Wingstop in Atlanta, GA</tspan></text>
    </g>
  </g>
</svg>
