<svg id="Group_1829" data-name="Group 1829" xmlns="http://www.w3.org/2000/svg" width="1366" height="696" viewBox="0 0 1366 696">
  <g id="Group_1828" data-name="Group 1828">
    <circle id="Ellipse_151" data-name="Ellipse 151" cx="8" cy="8" r="8" transform="translate(188 207)" fill="#6749aa"/>
    <ellipse id="Ellipse_152" data-name="Ellipse 152" cx="8.5" cy="9" rx="8.5" ry="9" transform="translate(222 242)" fill="#6749aa"/>
    <ellipse id="Ellipse_153" data-name="Ellipse 153" cx="10.5" cy="11" rx="10.5" ry="11" transform="translate(287 267)" fill="#6749aa"/>
    <circle id="Ellipse_155" data-name="Ellipse 155" cx="6" cy="6" r="6" transform="translate(1021 225)" fill="#6749aa"/>
    <circle id="Ellipse_156" data-name="Ellipse 156" cx="6.5" cy="6.5" r="6.5" transform="translate(1058 176)" fill="#6749aa"/>
    <ellipse id="Ellipse_157" data-name="Ellipse 157" cx="8.5" cy="9" rx="8.5" ry="9" transform="translate(1084 207)" fill="#6749aa"/>
    <ellipse id="Ellipse_158" data-name="Ellipse 158" cx="9.5" cy="10" rx="9.5" ry="10" transform="translate(1107 163)" fill="#6749aa"/>
    <ellipse id="Ellipse_159" data-name="Ellipse 159" cx="7.5" cy="8" rx="7.5" ry="8" transform="translate(1171 108)" fill="#6749aa"/>
    <path id="Path_4093" data-name="Path 4093" d="M0,555.849s319.872-116.587,659.117-193.31S1366,286.729,1366,286.729V720H0Z" transform="translate(0 -24)" fill="#6749aa"/>
  </g>
  <rect id="Rectangle_2121" data-name="Rectangle 2121" width="1366" height="696" fill="none"/>
</svg>
