<svg xmlns="http://www.w3.org/2000/svg" width="335.205" height="93.84" viewBox="0 0 335.205 93.84">
  <g id="InsemblePurpleLogo" transform="translate(-7.4 -3.08)">
    <path id="Path_16" data-name="Path 16" d="M79.66,33.05Q83,37.1,83,45.28V67.8H69.52V45.87c0-2.32-.4-4-1.19-5a4.44,4.44,0,0,0-3.72-1.53,6.34,6.34,0,0,0-4.91,2.05,7.74,7.74,0,0,0-1.85,5.39v21H44.39V40.89A89.672,89.672,0,0,0,43.8,30H56.43l.67,5.58A14.55,14.55,0,0,1,69.66,29Q76.35,29,79.66,33.05Z" fill="#674ea7"/>
    <path id="Path_17" data-name="Path 17" d="M88.17,63.86l3.42-9.14A24.4,24.4,0,0,0,98.5,58a26.47,26.47,0,0,0,7.59,1.16,7.8,7.8,0,0,0,3.56-.67,2.05,2.05,0,0,0,1.27-1.86,1.93,1.93,0,0,0-.93-1.67,10.74,10.74,0,0,0-3.53-1.16l-6.1-1.41q-5.79-1.24-8.36-3.8a9.6,9.6,0,0,1-2.56-7.1A10.37,10.37,0,0,1,91.59,35a14.25,14.25,0,0,1,6-4.42,22.57,22.57,0,0,1,8.8-1.6,27.74,27.74,0,0,1,8,1.19,29.73,29.73,0,0,1,7.36,3.35l-3.57,8.92a26.8,26.8,0,0,0-6.09-3,18.71,18.71,0,0,0-5.87-1,7.23,7.23,0,0,0-3.5.71,2.22,2.22,0,0,0-1.26,2,1.48,1.48,0,0,0,.74,1.3,10.32,10.32,0,0,0,2.83,1l6.31,1.41q6,1.41,8.66,4.12a10.17,10.17,0,0,1,2.64,7.4,10.22,10.22,0,0,1-4.42,8.77Q113.82,68.4,106,68.4,94.72,68.4,88.17,63.86Z" fill="#674ea7"/>
    <path id="Path_18" data-name="Path 18" d="M163.32,50.26H139.61c.25,2.93,1.09,5,2.53,6.32s3.54,1.93,6.31,1.93a17.93,17.93,0,0,0,5.65-.93A19,19,0,0,0,159.23,55l3.42,8.92a22,22,0,0,1-6.84,3.27,28.18,28.18,0,0,1-8,1.19A24.76,24.76,0,0,1,136.56,66a16.82,16.82,0,0,1-7.28-6.8,20.66,20.66,0,0,1-2.53-10.45,21.17,21.17,0,0,1,2.42-10.22,17.65,17.65,0,0,1,6.68-7A18.9,18.9,0,0,1,145.63,29,18,18,0,0,1,155,31.38a15.66,15.66,0,0,1,6.16,6.8,23.21,23.21,0,0,1,2.16,10.3ZM139.76,44h12q-.75-5.81-5.8-5.8T139.76,44Z" fill="#674ea7"/>
    <path id="Path_19" data-name="Path 19" d="M227.36,33q3.15,4,3.15,12.26V67.8H217.06V45.65a8.88,8.88,0,0,0-1-4.83,3.79,3.79,0,0,0-3.38-1.49,5.18,5.18,0,0,0-4.39,2.08,9.65,9.65,0,0,0-1.56,5.88V67.8H193.28V45.65a8.56,8.56,0,0,0-1.05-4.83,3.78,3.78,0,0,0-3.34-1.49,5.1,5.1,0,0,0-4.35,2.08A9.8,9.8,0,0,0,183,47.29V67.8H169.56V40.89A87.667,87.667,0,0,0,169,30h12.64l.66,5.28a11.64,11.64,0,0,1,4.8-4.68,14.91,14.91,0,0,1,7.1-1.64q8.1,0,11,6.84a14.93,14.93,0,0,1,5.31-5,14.42,14.42,0,0,1,7.15-1.8Q224.2,29,227.36,33Z" fill="#674ea7"/>
    <path id="Path_20" data-name="Path 20" d="M271.92,31.42a16.22,16.22,0,0,1,5.91,6.87,23.719,23.719,0,0,1,2.11,10.26,23.81,23.81,0,0,1-2.15,10.37,16.84,16.84,0,0,1-6,7,16.25,16.25,0,0,1-15.53,1,10.54,10.54,0,0,1-4.69-4.2V67.8h-13.3V13.1h13.45V34.58a11.51,11.51,0,0,1,4.68-4A14.9,14.9,0,0,1,263.22,29a15.86,15.86,0,0,1,8.7,2.42Zm-7.33,24.42q1.91-2.54,1.9-7.29,0-4.53-1.86-6.95a6.51,6.51,0,0,0-5.5-2.41,6.64,6.64,0,0,0-5.57,2.45c-1.29,1.63-1.94,4-1.94,7.06s.65,5.57,1.94,7.21a6.67,6.67,0,0,0,5.57,2.45,6.41,6.41,0,0,0,5.46-2.52Z" fill="#674ea7"/>
    <path id="Path_21" data-name="Path 21" d="M286.26,67.8V13.1h13.46V67.8Z" fill="#674ea7"/>
    <path id="Path_22" data-name="Path 22" d="M342.6,50.26H318.89c.25,2.93,1.09,5,2.53,6.32s3.54,1.93,6.32,1.93a18,18,0,0,0,5.65-.93A19,19,0,0,0,338.51,55l3.42,8.92a22,22,0,0,1-6.83,3.27,28.3,28.3,0,0,1-8,1.19A24.79,24.79,0,0,1,315.84,66a16.82,16.82,0,0,1-7.28-6.8A20.66,20.66,0,0,1,306,48.77a21.28,21.28,0,0,1,2.42-10.22,17.74,17.74,0,0,1,6.69-7,18.86,18.86,0,0,1,9.8-2.55,18,18,0,0,1,9.37,2.38,15.74,15.74,0,0,1,6.17,6.8,23.34,23.34,0,0,1,2.15,10.3ZM319,44h12c-.49-3.87-2.43-5.8-5.8-5.8S319.88,40.15,319,44Z" fill="#674ea7"/>
    <rect id="Rectangle_40" data-name="Rectangle 40" width="7.27" height="7.27" transform="translate(7.4 23.6)" fill="#674ea7"/>
    <rect id="Rectangle_41" data-name="Rectangle 41" width="7.27" height="7.27" transform="translate(7.4 42.47)" fill="#674ea7"/>
    <rect id="Rectangle_42" data-name="Rectangle 42" width="7.27" height="7.27" transform="translate(7.4 51.91)" fill="#674ea7"/>
    <rect id="Rectangle_43" data-name="Rectangle 43" width="7.27" height="7.27" transform="translate(7.4 61.34)" fill="#674ea7"/>
    <rect id="Rectangle_44" data-name="Rectangle 44" width="7.27" height="7.27" transform="translate(17.1 23.6)" fill="#674ea7"/>
    <rect id="Rectangle_45" data-name="Rectangle 45" width="7.27" height="7.27" transform="translate(17.1 33.03)" fill="#674ea7"/>
    <rect id="Rectangle_46" data-name="Rectangle 46" width="7.27" height="7.27" transform="translate(17.1 42.47)" fill="#674ea7"/>
    <rect id="Rectangle_47" data-name="Rectangle 47" width="7.27" height="7.27" transform="translate(17.1 51.91)" fill="#674ea7"/>
    <rect id="Rectangle_48" data-name="Rectangle 48" width="7.27" height="7.27" transform="translate(26.8 23.6)" fill="#674ea7"/>
    <rect id="Rectangle_49" data-name="Rectangle 49" width="7.27" height="7.27" transform="translate(26.8 42.47)" fill="#674ea7"/>
    <rect id="Rectangle_50" data-name="Rectangle 50" width="7.27" height="7.27" transform="translate(26.8 61.34)" fill="#674ea7"/>
    <rect id="Rectangle_51" data-name="Rectangle 51" width="7.27" height="7.27" transform="translate(17.1 70.78)" fill="#674ea7"/>
    <rect id="Rectangle_52" data-name="Rectangle 52" width="7.27" height="7.27" transform="translate(26.8 70.78)" fill="#674ea7"/>
    <rect id="Rectangle_53" data-name="Rectangle 53" width="7.27" height="7.27" transform="translate(26.8 80.22)" fill="#674ea7"/>
    <rect id="Rectangle_54" data-name="Rectangle 54" width="7.27" height="7.27" transform="translate(26.8 89.65)" fill="#674ea7"/>
    <rect id="Rectangle_55" data-name="Rectangle 55" width="7.27" height="7.27" transform="translate(7.4 80.22)" fill="#674ea7"/>
    <rect id="Rectangle_56" data-name="Rectangle 56" width="26.66" height="14.85" transform="translate(7.4 3.08)" fill="#674ea7"/>
  </g>
</svg>
