<svg xmlns="http://www.w3.org/2000/svg" xmlns:xlink="http://www.w3.org/1999/xlink" width="298" height="98" viewBox="0 0 298 98">
  <defs>
    <clipPath id="clip-path">
      <rect id="Rectangle_2127" data-name="Rectangle 2127" width="298" height="98" rx="49" transform="translate(899 302)" fill="#fff" stroke="#707070" stroke-width="1"/>
    </clipPath>
    <filter id="Rectangle_1" x="-1118" y="-17" width="1426" height="128" filterUnits="userSpaceOnUse">
      <feOffset dy="1" input="SourceAlpha"/>
      <feGaussianBlur stdDeviation="10" result="blur"/>
      <feFlood flood-color="#bababa" flood-opacity="0.192"/>
      <feComposite operator="in" in2="blur"/>
      <feComposite in="SourceGraphic"/>
    </filter>
  </defs>
  <g id="Mask_Group_15" data-name="Mask Group 15" transform="translate(-899 -302)" clip-path="url(#clip-path)">
    <g id="Header" transform="translate(-189 314)">
      <g transform="matrix(1, 0, 0, 1, 1088, -12)" filter="url(#Rectangle_1)">
        <rect id="Rectangle_1-2" data-name="Rectangle 1" width="1366" height="68" transform="translate(-1088 12)" fill="#fff"/>
      </g>
      <g id="Group_116" data-name="Group 116" transform="translate(-42 -207)">
        <rect id="Rectangle_179" data-name="Rectangle 179" width="108" height="36" transform="translate(78 223)" fill="#fff" opacity="0"/>
        <g id="InsemblePurpleLogo" transform="translate(82 227)">
          <path id="Path_1" data-name="Path 1" d="M54.5,30.2a5.646,5.646,0,0,1,1,3.649v6.72H51.473V34.03a2.446,2.446,0,0,0-.355-1.492,1.324,1.324,0,0,0-1.11-.457,1.891,1.891,0,0,0-1.465.612,2.31,2.31,0,0,0-.552,1.608v6.266H43.976V32.544a26.762,26.762,0,0,0-.176-3.249h3.768l.2,1.665A4.34,4.34,0,0,1,51.515,29,3.627,3.627,0,0,1,54.5,30.2Z" transform="translate(-32.941 -21.262)" fill="#674ea7"/>
          <path id="Path_2" data-name="Path 2" d="M88.17,39.384l1.02-2.727a7.278,7.278,0,0,0,2.061.979,7.9,7.9,0,0,0,2.264.346,2.326,2.326,0,0,0,1.062-.2.612.612,0,0,0,.379-.555.576.576,0,0,0-.277-.5,3.2,3.2,0,0,0-1.053-.346l-1.82-.421a4.977,4.977,0,0,1-2.494-1.134,2.865,2.865,0,0,1-.764-2.118,3.094,3.094,0,0,1,.641-1.936,4.251,4.251,0,0,1,1.79-1.319,6.732,6.732,0,0,1,2.625-.477,8.274,8.274,0,0,1,2.387.355,8.869,8.869,0,0,1,2.2,1l-1.065,2.662a8,8,0,0,0-1.817-.9,5.581,5.581,0,0,0-1.751-.3,2.157,2.157,0,0,0-1.044.212.662.662,0,0,0-.376.6.442.442,0,0,0,.221.388,3.078,3.078,0,0,0,.844.3l1.882.421a5.272,5.272,0,0,1,2.583,1.229,3.353,3.353,0,0,1-.531,4.825,6.028,6.028,0,0,1-3.646.97A9.2,9.2,0,0,1,88.17,39.384Z" transform="translate(-64.074 -21.249)" fill="#674ea7"/>
          <path id="Path_3" data-name="Path 3" d="M137.655,35.34h-7.073a2.768,2.768,0,0,0,.755,1.886,2.689,2.689,0,0,0,1.882.576,5.348,5.348,0,0,0,1.686-.277,5.668,5.668,0,0,0,1.53-.77l1.02,2.662a6.562,6.562,0,0,1-2.041.976,8.4,8.4,0,0,1-2.387.355,7.385,7.385,0,0,1-3.356-.71,5.018,5.018,0,0,1-2.172-2.029,6.166,6.166,0,0,1-.755-3.118,6.318,6.318,0,0,1,.722-3.049,5.266,5.266,0,0,1,1.993-2.089A5.638,5.638,0,0,1,132.378,29a5.369,5.369,0,0,1,2.8.71,4.672,4.672,0,0,1,1.838,2.029,6.927,6.927,0,0,1,.644,3.073Zm-7.029-1.868h3.58q-.224-1.734-1.73-1.731T130.626,33.472Z" transform="translate(-91.14 -21.263)" fill="#674ea7"/>
          <path id="Path_4" data-name="Path 4" d="M186.41,30.163a5.873,5.873,0,0,1,.94,3.658v6.725h-4.012V33.938a2.65,2.65,0,0,0-.3-1.441,1.131,1.131,0,0,0-1.008-.445,1.545,1.545,0,0,0-1.31.621,2.88,2.88,0,0,0-.465,1.754v6.12h-4.012V33.938a2.555,2.555,0,0,0-.313-1.441,1.128,1.128,0,0,0-1-.445,1.521,1.521,0,0,0-1.3.621,2.925,2.925,0,0,0-.459,1.754v6.12h-4.01V32.518A26.16,26.16,0,0,0,169,29.268h3.771l.2,1.575a3.473,3.473,0,0,1,1.432-1.4,4.447,4.447,0,0,1,2.118-.489A3.242,3.242,0,0,1,179.8,31a4.454,4.454,0,0,1,1.584-1.492,4.3,4.3,0,0,1,2.133-.537A3.462,3.462,0,0,1,186.41,30.163Z" transform="translate(-120.791 -21.236)" fill="#674ea7"/>
          <path id="Path_5" data-name="Path 5" d="M248.309,18.566a4.839,4.839,0,0,1,1.763,2.05,7.078,7.078,0,0,1,.629,3.061,7.105,7.105,0,0,1-.641,3.094,5.025,5.025,0,0,1-1.79,2.089,4.847,4.847,0,0,1-4.633.3,3.145,3.145,0,0,1-1.4-1.253v1.516H238.27V13.1h4.012v6.409a3.434,3.434,0,0,1,1.4-1.194,4.444,4.444,0,0,1,2.035-.471,4.731,4.731,0,0,1,2.6.722Zm-2.187,7.286a3.556,3.556,0,0,0,.567-2.175,3.348,3.348,0,0,0-.555-2.074,1.942,1.942,0,0,0-1.641-.719,1.981,1.981,0,0,0-1.662.731,3.342,3.342,0,0,0-.579,2.107,3.489,3.489,0,0,0,.579,2.151,1.99,1.99,0,0,0,1.662.731,1.912,1.912,0,0,0,1.629-.752Z" transform="translate(-169.396 -10.11)" fill="#674ea7"/>
          <path id="Path_6" data-name="Path 6" d="M286.26,29.421V13.1h4.015V29.421Z" transform="translate(-203.069 -10.11)" fill="#674ea7"/>
          <path id="Path_7" data-name="Path 7" d="M316.915,35.34h-7.073a2.768,2.768,0,0,0,.755,1.886,2.693,2.693,0,0,0,1.885.576,5.37,5.37,0,0,0,1.686-.277,5.668,5.668,0,0,0,1.527-.77l1.02,2.662a6.562,6.562,0,0,1-2.038.976,8.441,8.441,0,0,1-2.387.355,7.394,7.394,0,0,1-3.359-.71,5.018,5.018,0,0,1-2.172-2.029A6.165,6.165,0,0,1,306,34.9a6.35,6.35,0,0,1,.722-3.049,5.293,5.293,0,0,1,2-2.089A5.625,5.625,0,0,1,311.638,29a5.369,5.369,0,0,1,2.8.71,4.7,4.7,0,0,1,1.841,2.029,6.965,6.965,0,0,1,.641,3.073Zm-7.04-1.868h3.58c-.146-1.155-.725-1.731-1.73-1.731S310.137,32.324,309.875,33.472Z" transform="translate(-216.917 -21.263)" fill="#674ea7"/>
          <rect id="Rectangle_2" data-name="Rectangle 2" width="2.169" height="2.169" transform="translate(0 6.123)" fill="#674ea7"/>
          <rect id="Rectangle_3" data-name="Rectangle 3" width="2.169" height="2.169" transform="translate(0 11.753)" fill="#674ea7"/>
          <rect id="Rectangle_4" data-name="Rectangle 4" width="2.169" height="2.169" transform="translate(0 14.57)" fill="#674ea7"/>
          <rect id="Rectangle_5" data-name="Rectangle 5" width="2.169" height="2.169" transform="translate(0 17.384)" fill="#674ea7"/>
          <rect id="Rectangle_6" data-name="Rectangle 6" width="2.169" height="2.169" transform="translate(2.894 6.123)" fill="#674ea7"/>
          <rect id="Rectangle_7" data-name="Rectangle 7" width="2.169" height="2.169" transform="translate(2.894 8.936)" fill="#674ea7"/>
          <rect id="Rectangle_8" data-name="Rectangle 8" width="2.169" height="2.169" transform="translate(2.894 11.753)" fill="#674ea7"/>
          <rect id="Rectangle_9" data-name="Rectangle 9" width="2.169" height="2.169" transform="translate(2.894 14.57)" fill="#674ea7"/>
          <rect id="Rectangle_10" data-name="Rectangle 10" width="2.169" height="2.169" transform="translate(5.787 6.123)" fill="#674ea7"/>
          <rect id="Rectangle_11" data-name="Rectangle 11" width="2.169" height="2.169" transform="translate(5.787 11.753)" fill="#674ea7"/>
          <rect id="Rectangle_12" data-name="Rectangle 12" width="2.169" height="2.169" transform="translate(5.787 17.384)" fill="#674ea7"/>
          <rect id="Rectangle_13" data-name="Rectangle 13" width="2.169" height="2.169" transform="translate(2.894 20.2)" fill="#674ea7"/>
          <rect id="Rectangle_14" data-name="Rectangle 14" width="2.169" height="2.169" transform="translate(5.787 20.2)" fill="#674ea7"/>
          <rect id="Rectangle_15" data-name="Rectangle 15" width="2.169" height="2.169" transform="translate(5.787 23.017)" fill="#674ea7"/>
          <rect id="Rectangle_16" data-name="Rectangle 16" width="2.169" height="2.169" transform="translate(5.787 25.831)" fill="#674ea7"/>
          <rect id="Rectangle_17" data-name="Rectangle 17" width="2.169" height="2.169" transform="translate(0 23.017)" fill="#674ea7"/>
          <rect id="Rectangle_18" data-name="Rectangle 18" width="7.953" height="4.431" fill="#674ea7"/>
        </g>
      </g>
      <g id="Group_985" data-name="Group 985" transform="translate(24)">
        <g id="Rectangle_1538" data-name="Rectangle 1538" transform="translate(1226 20)" fill="#fff" stroke="#e5e5e5" stroke-width="1">
          <rect width="80" height="29" rx="14.5" stroke="none"/>
          <rect x="0.5" y="0.5" width="79" height="28" rx="14" fill="none"/>
        </g>
        <text id="Nenye" transform="translate(1239.5 38.662)" fill="#707070" font-size="13" font-family="Avenir-Medium, Avenir" font-weight="500"><tspan x="0" y="0">Nenye</tspan></text>
        <path id="Path_3921" data-name="Path 3921" d="M3.769,0,7.538,3.978H0Z" transform="translate(1292.538 37.978) rotate(180)" fill="gray"/>
      </g>
      <text id="Terminals" transform="translate(1178.5 38.662)" fill="#707070" font-size="13" font-family="Avenir-Medium, Avenir" font-weight="500"><tspan x="0" y="0">Terminals</tspan></text>
      <g id="Search_Bar" data-name="Search Bar" transform="translate(207 14)">
        <rect id="Rectangle_663" data-name="Rectangle 663" width="918" height="42" rx="5" fill="#f7f7f7"/>
        <text id="Search_for_data" data-name="Search for data" transform="translate(75 26)" fill="gray" font-size="14" font-family="Avenir-Medium, Avenir" font-weight="500"><tspan x="0" y="0">Search for data</tspan></text>
        <text id="Any_business_category" data-name="Any business/category" transform="translate(426 26)" fill="gray" font-size="14" font-family="Avenir-Medium, Avenir" font-weight="500"><tspan x="-71.96" y="0">Any business/category</tspan></text>
        <text id="Any_Location" data-name="Any Location" transform="translate(714 26)" fill="gray" font-size="14" font-family="Avenir-Medium, Avenir" font-weight="500"><tspan x="0" y="0">Any Location</tspan></text>
        <path id="Path_67" data-name="Path 67" d="M15.5,14h-.79l-.28-.27a6.518,6.518,0,1,0-.7.7l.27.28v.79l4.25,4.25a1.054,1.054,0,0,0,1.49-1.49Zm-6,0A4.5,4.5,0,1,1,14,9.5,4.494,4.494,0,0,1,9.5,14Z" transform="translate(886.73 10)" fill="#c5c5c5"/>
        <text id="of" transform="translate(249 26)" fill="#c5c5c5" font-size="14" font-family="Avenir-Medium, Avenir" font-weight="500"><tspan x="0" y="0">of</tspan></text>
        <text id="in" transform="translate(590 26)" fill="#c5c5c5" font-size="14" font-family="Avenir-Medium, Avenir" font-weight="500"><tspan x="0" y="0">in</tspan></text>
      </g>
    </g>
  </g>
</svg>
